<?xml version="1.0" encoding="UTF-8"?>
<svg width="700pt" height="700pt" version="1.1" viewBox="0 0 700 700" xmlns="http://www.w3.org/2000/svg" xmlns:xlink="http://www.w3.org/1999/xlink">
 <defs>
  <symbol id="x" overflow="visible">
   <path d="m0.1875-0.015625c-0.011719 0.011719-0.023438 0.015625-0.03125 0.015625h-0.03125c-0.03125 0-0.058594-0.0039062-0.078125-0.015625-0.023438-0.019531-0.03125-0.046875-0.03125-0.078125 0-0.039062 0.0078125-0.066406 0.03125-0.078125 0.019531-0.019531 0.046875-0.03125 0.078125-0.03125h0.03125c0.007812 0 0.019531 0.007813 0.03125 0.015625v0.03125h-0.03125c-0.011719-0.007812-0.023438-0.015625-0.03125-0.015625-0.023438 0-0.039062 0.007813-0.046875 0.015625-0.011719 0.011719-0.015625 0.03125-0.015625 0.0625 0 0.023438 0.0039062 0.039062 0.015625 0.046875 0.0078125 0.011719 0.023437 0.015625 0.046875 0.015625h0.03125c0.007812-0.0078125 0.019531-0.015625 0.03125-0.015625z"/>
  </symbol>
  <symbol id="c" overflow="visible">
   <path d="m0.14062-0.10938h-0.015625c0-0.007813-0.007812-0.015625-0.015625-0.015625-0.011719 0-0.023438 0.007812-0.03125 0.015625v0.046875 0.0625h-0.0625v-0.15625h0.0625v0.03125c0-0.007812 0.0039062-0.015625 0.015625-0.015625 0.007812-0.007813 0.019531-0.015625 0.03125-0.015625h0.015625z"/>
  </symbol>
  <symbol id="a" overflow="visible">
   <path d="m0.17188-0.078125v0.015625h-0.10938v0.03125h0.046875 0.03125c0.007813-0.0078125 0.019531-0.015625 0.03125-0.015625v0.03125c-0.011719 0.011719-0.023437 0.015625-0.03125 0.015625h-0.046875c-0.023438 0-0.042969-0.0039062-0.0625-0.015625-0.011719-0.019531-0.015625-0.039062-0.015625-0.0625 0-0.019531 0.0039062-0.035156 0.015625-0.046875 0.019531-0.019531 0.039062-0.03125 0.0625-0.03125 0.019531 0 0.035156 0.011719 0.046875 0.03125 0.019531 0.011719 0.03125 0.027344 0.03125 0.046875zm-0.046875-0.015625c0-0.007812-0.007812-0.015625-0.015625-0.015625 0-0.007813-0.007813-0.015625-0.015625-0.015625-0.011719 0-0.023438 0.007812-0.03125 0.015625v0.015625z"/>
  </symbol>
  <symbol id="b" overflow="visible">
   <path d="m0.09375-0.0625h-0.03125v0.015625 0.015625h0.015625 0.03125c0.007813-0.0078125 0.015625-0.019531 0.015625-0.03125zm0.078125-0.03125v0.09375h-0.046875v-0.015625c-0.011719 0-0.023438 0.0078125-0.03125 0.015625h-0.03125-0.03125c-0.011719-0.0078125-0.015625-0.023438-0.015625-0.046875 0-0.019531 0.0039062-0.03125 0.015625-0.03125 0.0078125-0.0078125 0.03125-0.015625 0.0625-0.015625h0.03125c0-0.007812-0.007812-0.015625-0.015625-0.015625-0.011719-0.007813-0.023438-0.015625-0.03125-0.015625h-0.03125c-0.011719 0-0.015625 0.007812-0.015625 0.015625v-0.046875h0.03125 0.03125c0.019531 0 0.035156 0.007812 0.046875 0.015625 0.019531 0.011719 0.03125 0.027344 0.03125 0.046875z"/>
  </symbol>
  <symbol id="e" overflow="visible">
   <path d="m0.078125-0.20312v0.046875h0.046875v0.03125h-0.046875v0.078125 0.015625h0.015625 0.03125v0.03125h-0.046875c-0.023438 0-0.039062-0.0039062-0.046875-0.015625v-0.03125-0.078125h-0.03125v-0.03125h0.03125v-0.046875z"/>
  </symbol>
  <symbol id="i" overflow="visible">
   <path d="m0.125-0.125v-0.09375h0.046875v0.21875h-0.046875v-0.015625s-0.007812 0.0078125-0.015625 0.015625h-0.03125c-0.023438 0-0.039062-0.0039062-0.046875-0.015625-0.011719-0.019531-0.015625-0.039062-0.015625-0.0625 0-0.019531 0.0039062-0.035156 0.015625-0.046875 0.0078125-0.019531 0.023438-0.03125 0.046875-0.03125 0.0078125 0 0.019531 0.007812 0.03125 0.015625 0.007813 0 0.015625 0.007813 0.015625 0.015625zm-0.03125 0.09375h0.015625c0.007813-0.0078125 0.015625-0.023438 0.015625-0.046875 0-0.0078125-0.007812-0.019531-0.015625-0.03125 0-0.007813-0.007813-0.015625-0.015625-0.015625-0.011719 0-0.023438 0.007812-0.03125 0.015625v0.03125 0.046875h0.03125z"/>
  </symbol>
  <symbol id="m" overflow="visible">
   <path d="m0.10938-0.03125h0.015625c0.007812-0.0078125 0.015625-0.023438 0.015625-0.046875 0-0.0078125-0.007813-0.019531-0.015625-0.03125 0-0.007813-0.007812-0.015625-0.015625-0.015625-0.011719 0-0.023438 0.007812-0.03125 0.015625v0.03125 0.03125c0.0078125 0.011719 0.019531 0.015625 0.03125 0.015625zm-0.03125-0.09375c0-0.007812 0.0039062-0.015625 0.015625-0.015625 0.007812-0.007813 0.019531-0.015625 0.03125-0.015625 0.019531 0 0.035156 0.011719 0.046875 0.03125 0.007813 0.011719 0.015625 0.027344 0.015625 0.046875 0 0.023438-0.007812 0.042969-0.015625 0.0625-0.011719 0.011719-0.027344 0.015625-0.046875 0.015625h-0.03125c-0.011719-0.0078125-0.015625-0.015625-0.015625-0.015625v0.015625h-0.0625v-0.21875h0.0625z"/>
  </symbol>
  <symbol id="h" overflow="visible">
   <path d="m0-0.15625h0.046875l0.046875 0.10938 0.03125-0.10938h0.046875l-0.0625 0.17188c0 0.019531-0.007813 0.03125-0.015625 0.03125-0.011719 0.0078125-0.023438 0.015625-0.03125 0.015625h-0.03125v-0.03125h0.015625c0.0078125 0 0.015625-0.0078125 0.015625-0.015625v-0.015625z"/>
  </symbol>
  <symbol id="l" overflow="visible">
   <path d="m0.125-0.17188c-0.023438 0-0.039062 0.007813-0.046875 0.015625-0.011719 0.011719-0.015625 0.03125-0.015625 0.0625 0 0.023438 0.0039062 0.039062 0.015625 0.046875 0.0078125 0.011719 0.023437 0.015625 0.046875 0.015625 0.007812 0 0.019531-0.0039062 0.03125-0.015625 0.007812-0.0078125 0.015625-0.023438 0.015625-0.046875 0-0.03125-0.007813-0.050781-0.015625-0.0625-0.011719-0.007812-0.023438-0.015625-0.03125-0.015625zm0-0.03125c0.03125 0 0.050781 0.011719 0.0625 0.03125 0.019531 0.011719 0.03125 0.039063 0.03125 0.078125 0 0.03125-0.011719 0.058594-0.03125 0.078125-0.011719 0.011719-0.03125 0.015625-0.0625 0.015625-0.042969 0-0.074219-0.0039062-0.09375-0.015625-0.011719-0.019531-0.015625-0.046875-0.015625-0.078125 0-0.039062 0.0039062-0.066406 0.015625-0.078125 0.019531-0.019531 0.050781-0.03125 0.09375-0.03125z"/>
  </symbol>
  <symbol id="w" overflow="visible">
   <path d="m0.015625-0.21875h0.0625v0.21875h-0.0625z"/>
  </symbol>
  <symbol id="k" overflow="visible">
   <path d="m0.015625-0.21875h0.0625v0.125l0.046875-0.0625h0.0625l-0.078125 0.078125 0.078125 0.078125h-0.0625l-0.046875-0.0625v0.0625h-0.0625z"/>
  </symbol>
  <symbol id="g" overflow="visible">
   <path d="m0.14062-0.15625v0.046875c-0.011719-0.007813-0.023437-0.015625-0.03125-0.015625h-0.03125-0.015625v0.015625 0.015625h0.015625 0.015625c0.019531 0 0.035156 0.0078125 0.046875 0.015625 0.007813 0.011719 0.015625 0.023438 0.015625 0.03125 0 0.023438-0.007812 0.039062-0.015625 0.046875h-0.0625-0.03125-0.03125v-0.046875c0.0078125 0.011719 0.019531 0.015625 0.03125 0.015625h0.03125 0.015625c0.007812 0 0.015625-0.0039062 0.015625-0.015625h-0.015625c0-0.0078125-0.0078125-0.015625-0.015625-0.015625-0.023438 0-0.039062-0.0039062-0.046875-0.015625-0.011719-0.0078125-0.015625-0.019531-0.015625-0.03125 0-0.007813 0.0039062-0.019531 0.015625-0.03125 0.0078125-0.007813 0.023438-0.015625 0.046875-0.015625h0.03125 0.03125z"/>
  </symbol>
  <symbol id="f" overflow="visible">
   <path d="m0.17188-0.09375v0.09375h-0.046875v-0.0625-0.03125-0.015625h-0.015625v-0.015625c-0.011719 0-0.023438 0.007812-0.03125 0.015625v0.03125 0.078125h-0.0625v-0.15625h0.0625v0.03125c0-0.007812 0.0039062-0.015625 0.015625-0.015625 0.007812-0.007813 0.019531-0.015625 0.03125-0.015625 0.019531 0 0.03125 0.007812 0.03125 0.015625 0.007812 0.011719 0.015625 0.027344 0.015625 0.046875z"/>
  </symbol>
  <symbol id="j" overflow="visible">
   <path d="m0.03125-0.20312h0.078125c0.03125 0 0.050781 0.007813 0.0625 0.015625 0.007813 0.011719 0.015625 0.027344 0.015625 0.046875 0 0.023437-0.007812 0.042969-0.015625 0.0625-0.011719 0.011719-0.03125 0.015625-0.0625 0.015625h-0.03125v0.0625h-0.046875zm0.046875 0.03125v0.0625h0.03125 0.015625c0.007812-0.007813 0.015625-0.019531 0.015625-0.03125 0-0.007813-0.007813-0.015625-0.015625-0.015625 0-0.007812-0.007812-0.015625-0.015625-0.015625z"/>
  </symbol>
  <symbol id="d" overflow="visible">
   <path d="m0.09375-0.125c-0.011719 0-0.023438 0.007812-0.03125 0.015625v0.03125 0.046875h0.03125 0.015625c0.007813-0.0078125 0.015625-0.023438 0.015625-0.046875 0-0.0078125-0.007812-0.019531-0.015625-0.03125 0-0.007813-0.007813-0.015625-0.015625-0.015625zm0-0.03125c0.03125 0 0.050781 0.011719 0.0625 0.03125 0.007812 0.011719 0.015625 0.027344 0.015625 0.046875 0 0.023438-0.007813 0.042969-0.015625 0.0625-0.011719 0.011719-0.03125 0.015625-0.0625 0.015625-0.023438 0-0.042969-0.0039062-0.0625-0.015625-0.011719-0.019531-0.015625-0.039062-0.015625-0.0625 0-0.019531 0.0039062-0.035156 0.015625-0.046875 0.019531-0.019531 0.039062-0.03125 0.0625-0.03125z"/>
  </symbol>
  <symbol id="v" overflow="visible">
   <path d="m0-0.15625h0.046875l0.046875 0.10938 0.03125-0.10938h0.046875l-0.046875 0.15625h-0.0625z"/>
  </symbol>
  <symbol id="u" overflow="visible">
   <path d="m0.015625-0.15625h0.0625v0.15625h-0.0625zm0-0.0625h0.0625v0.046875h-0.0625z"/>
  </symbol>
  <symbol id="t" overflow="visible">
   <path d="m0.125-0.21875v0.046875h-0.03125-0.015625v0.015625h0.046875v0.03125h-0.046875v0.125h-0.046875v-0.125h-0.03125v-0.03125h0.03125c0-0.019531 0.0039062-0.035156 0.015625-0.046875 0.0078125-0.007813 0.023438-0.015625 0.046875-0.015625z"/>
  </symbol>
  <symbol id="s" overflow="visible">
   <path d="m0.17188-0.125c0-0.007812 0.003906-0.015625 0.015625-0.015625 0.007812-0.007813 0.019531-0.015625 0.03125-0.015625 0.007812 0 0.019531 0.007812 0.03125 0.015625 0.007812 0.011719 0.015625 0.027344 0.015625 0.046875v0.09375h-0.046875v-0.078125-0.015625c0-0.007812-0.007812-0.015625-0.015625-0.015625v-0.015625c-0.011719 0-0.023437 0.007812-0.03125 0.015625v0.03125 0.078125h-0.046875v-0.078125c0-0.019531-0.007812-0.03125-0.015625-0.03125 0-0.007813-0.007813-0.015625-0.015625-0.015625 0 0-0.0078125 0.007812-0.015625 0.015625v0.03125 0.078125h-0.0625v-0.15625h0.0625v0.03125c0-0.007812 0.0039062-0.015625 0.015625-0.015625 0.007812-0.007813 0.019531-0.015625 0.03125-0.015625 0.007812 0 0.015625 0.007812 0.015625 0.015625 0.007813 0 0.019531 0.007813 0.03125 0.015625z"/>
  </symbol>
  <symbol id="r" overflow="visible">
   <path d="m0.17188-0.09375v0.09375h-0.046875v-0.0625-0.03125-0.015625h-0.015625v-0.015625c-0.011719 0-0.023438 0.007812-0.03125 0.015625v0.03125 0.078125h-0.0625v-0.21875h0.0625v0.09375c0-0.007812 0.0039062-0.015625 0.015625-0.015625 0.007812-0.007813 0.019531-0.015625 0.03125-0.015625 0.019531 0 0.03125 0.007812 0.03125 0.015625 0.007812 0.011719 0.015625 0.027344 0.015625 0.046875z"/>
  </symbol>
  <symbol id="q" overflow="visible">
   <path d="m0.03125-0.20312h0.046875l0.078125 0.14062v-0.14062h0.046875v0.20312h-0.046875l-0.078125-0.14062v0.14062h-0.046875z"/>
  </symbol>
  <symbol id="p" overflow="visible">
   <path d="m0.015625-0.0625v-0.09375h0.046875v0.015625 0.03125 0.03125 0.03125h0.015625v0.015625h0.015625c0.007812 0 0.015625-0.0039062 0.015625-0.015625 0.007813-0.0078125 0.015625-0.019531 0.015625-0.03125v-0.078125h0.046875v0.15625h-0.046875v-0.015625c-0.011719 0-0.023438 0.0078125-0.03125 0.015625h-0.015625c-0.023438 0-0.039062-0.0039062-0.046875-0.015625-0.011719-0.0078125-0.015625-0.023438-0.015625-0.046875z"/>
  </symbol>
  <symbol id="o" overflow="visible">
   <path d="m0.015625-0.15625h0.0625v0.15625c0 0.019531-0.0078125 0.035156-0.015625 0.046875-0.011719 0.0078125-0.027344 0.015625-0.046875 0.015625h-0.03125v-0.03125h0.015625c0.0078125 0 0.015625-0.0078125 0.015625-0.015625v-0.015625zm0-0.0625h0.0625v0.046875h-0.0625z"/>
  </symbol>
  <symbol id="n" overflow="visible">
   <path d="m0.15625-0.15625v0.046875h-0.03125c0-0.007813-0.007812-0.015625-0.015625-0.015625-0.011719 0-0.023438 0.007812-0.03125 0.015625-0.011719 0.011719-0.015625 0.023438-0.015625 0.03125 0 0.011719 0.0039062 0.023438 0.015625 0.03125 0.0078125 0.011719 0.019531 0.015625 0.03125 0.015625h0.015625c0.007812-0.0078125 0.019531-0.015625 0.03125-0.015625v0.046875h-0.03125-0.03125c-0.023438 0-0.042969-0.0039062-0.0625-0.015625-0.011719-0.019531-0.015625-0.039062-0.015625-0.0625 0-0.019531 0.0039062-0.035156 0.015625-0.046875 0.019531-0.019531 0.039062-0.03125 0.0625-0.03125h0.03125 0.03125z"/>
  </symbol>
 </defs>
 <g>
  <path d="m423.89 34.215c15.078 15.074 15.078 39.82 0 54.895-4.4727 4.4727-10.031 7.8594-16.246 9.7305v35.297h-22.398v-35.297c-6.2148-1.8711-11.773-5.2578-16.246-9.7305-15.078-15.074-15.078-39.82 0-54.895 15.074-15.078 39.82-15.078 54.895 0zm-164.87 111.04h181.86c33.172 0 60.27 27.098 60.27 60.27v73.605c0 27.965-19.461 52.344-46.582 58.695 5.75 4.8789 10.844 10.453 15.195 16.609l18.996-0.050782c11.883 0 22.465 6.1328 29.941 16.016 6.7969 8.9805 11.016 21.207 11.016 34.508 0 14.73-22.398 14.73-22.398 0 0-8.3242-2.4766-15.762-6.4688-21.035-3.3086-4.3711-7.6055-7.0898-12.09-7.0898h-7.5859c3.1016 9.1406 4.6914 18.688 4.6914 28.344 0 36.23-14.812 69.164-38.68 93.027-51.918 51.918-142.56 51.918-194.48 0-23.867-23.867-38.68-56.797-38.68-93.027 0-9.6523 1.5898-19.199 4.6914-28.344h-7.4922c-4.4844 0-8.7812 2.7148-12.09 7.0898-3.9883 5.2734-6.4688 12.711-6.4688 21.035 0 14.73-22.398 14.73-22.398 0 0-13.301 4.2188-25.527 11.016-34.508 7.4766-9.8789 18.062-16.016 29.941-16.016l18.91 0.042969c4.3438-6.1484 9.4492-11.734 15.191-16.602-27.121-6.3516-46.582-30.73-46.582-58.695v-73.605c0-33.172 27.098-60.27 60.27-60.27zm142.78 194.15h-103.7c-16.441 1.0469-31.301 8.207-42.312 19.223-11.941 11.941-19.355 28.406-19.355 46.504 0 30.047 12.301 57.375 32.117 77.191 43.168 43.172 119.63 43.172 162.8 0 19.816-19.816 32.117-47.141 32.117-77.191 0-18.098-7.4141-34.562-19.355-46.504-11.012-11.012-25.871-18.176-42.312-19.223zm39.078-171.75h-181.86c-20.805 0-37.871 17.066-37.871 37.871v73.605c0 20.805 17.066 37.871 37.871 37.871h181.86c20.805 0 37.871-17.066 37.871-37.871v-73.605c0-20.805-17.066-37.871-37.871-37.871zm-9.4102 47.109c15.078 15.074 15.078 39.82 0 54.895-15.074 15.078-39.82 15.078-54.895 0-15.078-15.074-15.078-39.82 0-54.895 15.074-15.078 39.82-15.078 54.895 0zm-15.84 15.84c-6.375-6.375-16.844-6.375-23.219 0s-6.375 16.844 0 23.219 16.844 6.375 23.219 0 6.375-16.844 0-23.219zm-92.77-15.742c15.078 15.074 15.074 39.82 0 54.895-15.074 15.078-39.82 15.078-54.895 0-15.074-15.074-15.078-39.82 0-54.895 15.074-15.078 39.82-15.078 54.895 0zm-15.84 15.84c-6.375-6.375-16.844-6.375-23.219 0s-6.375 16.844 0 23.219 16.844 6.375 23.219 0 6.375-16.844 0-23.219zm7.1641-131.86v35.297h-22.398v-35.297c-6.2148-1.8711-11.773-5.2578-16.246-9.7305-15.078-15.074-15.078-39.82 0-54.895 15.074-15.078 39.82-15.078 54.895 0 15.078 15.074 15.078 39.82 0 54.895-4.4727 4.4727-10.031 7.8594-16.246 9.7305zm0.41016-48.785c-6.375-6.375-16.844-6.375-23.219 0s-6.375 16.844 0 23.219 16.844 6.375 23.219 0 6.375-16.844 0-23.219zm93.457 0c-6.375-6.375-16.844-6.375-23.219 0s-6.375 16.844 0 23.219 16.844 6.375 23.219 0 6.375-16.844 0-23.219z"/>
  <use x="70" y="560.839844" xlink:href="#x"/>
  <use x="70.207031" y="560.839844" xlink:href="#c"/>
  <use x="70.34375" y="560.839844" xlink:href="#a"/>
  <use x="70.535156" y="560.839844" xlink:href="#b"/>
  <use x="70.722656" y="560.839844" xlink:href="#e"/>
  <use x="70.855469" y="560.839844" xlink:href="#a"/>
  <use x="71.046875" y="560.839844" xlink:href="#i"/>
  <use x="71.34375" y="560.839844" xlink:href="#m"/>
  <use x="71.542969" y="560.839844" xlink:href="#h"/>
  <use x="71.824219" y="560.839844" xlink:href="#l"/>
  <use x="72.0625" y="560.839844" xlink:href="#w"/>
  <use x="72.160156" y="560.839844" xlink:href="#a"/>
  <use x="72.347656" y="560.839844" xlink:href="#k"/>
  <use x="72.535156" y="560.839844" xlink:href="#g"/>
  <use x="72.703125" y="560.839844" xlink:href="#b"/>
  <use x="72.890625" y="560.839844" xlink:href="#f"/>
  <use x="73.089844" y="560.839844" xlink:href="#i"/>
  <use x="73.289063" y="560.839844" xlink:href="#c"/>
  <use x="73.527344" y="560.839844" xlink:href="#j"/>
  <use x="73.730469" y="560.839844" xlink:href="#b"/>
  <use x="73.917969" y="560.839844" xlink:href="#f"/>
  <use x="74.117188" y="560.839844" xlink:href="#b"/>
  <use x="74.308594" y="560.839844" xlink:href="#g"/>
  <use x="74.476562" y="560.839844" xlink:href="#d"/>
  <use x="74.667969" y="560.839844" xlink:href="#v"/>
  <use x="74.847656" y="560.839844" xlink:href="#g"/>
  <use x="75.015625" y="560.839844" xlink:href="#k"/>
  <use x="75.203125" y="560.839844" xlink:href="#h"/>
  <use x="75.386719" y="560.839844" xlink:href="#u"/>
  <use x="70" y="561.121094" xlink:href="#t"/>
  <use x="70.121094" y="561.121094" xlink:href="#c"/>
  <use x="70.261719" y="561.121094" xlink:href="#d"/>
  <use x="70.453125" y="561.121094" xlink:href="#s"/>
  <use x="70.839844" y="561.121094" xlink:href="#e"/>
  <use x="70.976562" y="561.121094" xlink:href="#r"/>
  <use x="71.175781" y="561.121094" xlink:href="#a"/>
  <use x="71.460938" y="561.121094" xlink:href="#q"/>
  <use x="71.695312" y="561.121094" xlink:href="#d"/>
  <use x="71.890625" y="561.121094" xlink:href="#p"/>
  <use x="72.089844" y="561.121094" xlink:href="#f"/>
  <use x="72.386719" y="561.121094" xlink:href="#j"/>
  <use x="72.589844" y="561.121094" xlink:href="#c"/>
  <use x="72.726562" y="561.121094" xlink:href="#d"/>
  <use x="72.921875" y="561.121094" xlink:href="#o"/>
  <use x="73.015625" y="561.121094" xlink:href="#a"/>
  <use x="73.207031" y="561.121094" xlink:href="#n"/>
  <use x="73.371094" y="561.121094" xlink:href="#e"/>
 </g>
</svg>
